<svg xmlns="http://www.w3.org/2000/svg" xmlns:xlink="http://www.w3.org/1999/xlink" fill="none" version="1.1" width="130" height="172.60546875" viewBox="0 0 130 172.60546875"><defs><linearGradient x1="1" y1="0.37377849221229553" x2="0.7536691414229695" y2="-0.1000007789670298" id="master_svg0_216_76860"><stop offset="0%" stop-color="#DFB480" stop-opacity="1"/><stop offset="100%" stop-color="#FFECCA" stop-opacity="1"/></linearGradient><linearGradient x1="0.5" y1="0" x2="0.5" y2="1" id="master_svg1_216_76876"><stop offset="0%" stop-color="#EAD1A5" stop-opacity="1"/><stop offset="100%" stop-color="#EADCA5" stop-opacity="0"/></linearGradient><linearGradient x1="0.9593833684921265" y1="0.04483092203736305" x2="0.9632697575358472" y2="0.9316333391040659" id="master_svg2_216_76889"><stop offset="0%" stop-color="#F9E9CD" stop-opacity="1"/><stop offset="100%" stop-color="#F0CFA8" stop-opacity="1"/></linearGradient><linearGradient x1="1" y1="0.3378587067127228" x2="0.615793311492273" y2="-0.13582577300863646" id="master_svg3_216_76886"><stop offset="0%" stop-color="#EECB9F" stop-opacity="1"/><stop offset="97.85714149475098%" stop-color="#FFEFD3" stop-opacity="1"/></linearGradient><linearGradient x1="0.5" y1="0" x2="0.5" y2="1" id="master_svg4_216_76864"><stop offset="0%" stop-color="#F0D7B1" stop-opacity="1"/><stop offset="100%" stop-color="#FFF3D7" stop-opacity="1"/></linearGradient><linearGradient x1="0" y1="0.04411730542778969" x2="0.8688922157983643" y2="0.9173530155941243" id="master_svg5_216_77268"><stop offset="8.571428805589676%" stop-color="#EFD29F" stop-opacity="1"/><stop offset="95.71428298950195%" stop-color="#EECA9F" stop-opacity="1"/></linearGradient><linearGradient x1="0.5" y1="0" x2="0.5" y2="1" id="master_svg6_216_77270"><stop offset="0%" stop-color="#DFBD81" stop-opacity="1"/><stop offset="100%" stop-color="#EECE9F" stop-opacity="1"/></linearGradient><linearGradient x1="0" y1="0.04411730542778969" x2="0.8688922157983643" y2="0.9173530155941243" id="master_svg7_216_77268"><stop offset="8.571428805589676%" stop-color="#EFD29F" stop-opacity="1"/><stop offset="95.71428298950195%" stop-color="#EECA9F" stop-opacity="1"/></linearGradient><linearGradient x1="0.5" y1="0" x2="0.5" y2="1" id="master_svg8_216_77270"><stop offset="0%" stop-color="#DFBD81" stop-opacity="1"/><stop offset="100%" stop-color="#EECE9F" stop-opacity="1"/></linearGradient><linearGradient x1="0" y1="0.04411730542778969" x2="0.7787261024374861" y2="0.9910860970781695" id="master_svg9_216_77268"><stop offset="8.571428805589676%" stop-color="#EFD29F" stop-opacity="1"/><stop offset="95.71428298950195%" stop-color="#EECA9F" stop-opacity="1"/></linearGradient><linearGradient x1="0.5" y1="0" x2="0.5" y2="1" id="master_svga_216_77270"><stop offset="0%" stop-color="#DFBD81" stop-opacity="1"/><stop offset="100%" stop-color="#EECE9F" stop-opacity="1"/></linearGradient><linearGradient x1="0" y1="0.04411730542778969" x2="0.8688922157983643" y2="0.9173530155941243" id="master_svgb_216_77268"><stop offset="8.571428805589676%" stop-color="#EFD29F" stop-opacity="1"/><stop offset="95.71428298950195%" stop-color="#EECA9F" stop-opacity="1"/></linearGradient><linearGradient x1="0.5" y1="0" x2="0.5" y2="1" id="master_svgc_216_77270"><stop offset="0%" stop-color="#DFBD81" stop-opacity="1"/><stop offset="100%" stop-color="#EECE9F" stop-opacity="1"/></linearGradient><linearGradient x1="0" y1="0.04411730542778969" x2="0.8688922157983643" y2="0.9173530155941243" id="master_svgd_216_77268"><stop offset="8.571428805589676%" stop-color="#EFD29F" stop-opacity="1"/><stop offset="95.71428298950195%" stop-color="#EECA9F" stop-opacity="1"/></linearGradient><linearGradient x1="0.5" y1="0" x2="0.5" y2="1" id="master_svge_216_77270"><stop offset="0%" stop-color="#DFBD81" stop-opacity="1"/><stop offset="100%" stop-color="#EECE9F" stop-opacity="1"/></linearGradient><linearGradient x1="0.5" y1="0" x2="0.5" y2="1" id="master_svgf_216_76867"><stop offset="0%" stop-color="#EBCFA6" stop-opacity="1"/><stop offset="100%" stop-color="#FEF0D5" stop-opacity="1"/></linearGradient><linearGradient x1="0.5" y1="0" x2="0.5" y2="1" id="master_svgg_216_76873"><stop offset="0%" stop-color="#FCE8D0" stop-opacity="1"/><stop offset="100%" stop-color="#F6F1FF" stop-opacity="1"/></linearGradient><filter id="master_svgh_292_85661" filterUnits="objectBoundingBox" color-interpolation-filters="sRGB" x="-1.0241193090166365" y="-0.12005184716857176" width="3.048238618033273" height="1.2401036943371435"><feFlood flood-opacity="0" result="BackgroundImageFix"/><feBlend mode="normal" in="SourceGraphic" in2="BackgroundImageFix" result="shape"/><feGaussianBlur stdDeviation="0.8961043953895569" result="effect1_foregroundBlur"/></filter><linearGradient x1="0.5" y1="0" x2="0.5" y2="1" id="master_svgi_216_76847"><stop offset="0%" stop-color="#FFF1E2" stop-opacity="1"/><stop offset="100%" stop-color="#F7E5C6" stop-opacity="1"/></linearGradient><linearGradient x1="0.2094813734292984" y1="0.06450354307889938" x2="0.6156927146896838" y2="0.6958791815777223" id="master_svgj_216_76849"><stop offset="0%" stop-color="#FFF4EC" stop-opacity="1"/><stop offset="99.99990463256836%" stop-color="#F3DFBC" stop-opacity="1"/></linearGradient><linearGradient x1="0.13519287109375" y1="0.531005859375" x2="1.0059355578257025" y2="0.611661044867498" id="master_svgk_216_76857"><stop offset="0%" stop-color="#D4BC91" stop-opacity="1"/><stop offset="99.99997019767761%" stop-color="#F7DEB9" stop-opacity="1"/></linearGradient></defs><path d="M13.35546875,163.653931875C13.35546875,167.613171875,16.56506585,170.822771875,20.52430435,170.822771875L122.83046875,170.822771875C126.78969875,170.822771875,129.99930875,167.613171875,129.99930875,163.653931875L129.99930875,11.338757975C129.99930875,7.379518975,126.78969875,4.169921875,122.83046875,4.169921875L20.52430485,4.169921875C16.56506585,4.169921875,13.35546875,7.379518975,13.35546875,11.338755575L13.35546875,163.653931875Z" fill="url(#master_svg0_216_76860)" fill-opacity="1"/><path d="M12.46484375,130.6801385469055C12.46484375,134.6393885469055,15.67444085,137.84897854690553,19.63367935,137.84897854690553L121.93984375,137.84897854690553C125.89907375,137.84897854690553,129.10868375,134.6393885469055,129.10868375,130.6801385469055L129.10868375,12.230264646905518C129.10868375,8.271025646905517,125.89907375,5.061428546905518,121.93984375,5.061428546905518L19.63367985,5.061428546905518C15.67444085,5.061428546905518,12.46484375,8.271025646905517,12.46484375,12.230265146905516L12.46484375,130.6801385469055Z" fill="url(#master_svg1_216_76876)" fill-opacity="1"/><path d="M6.234375,163.6542485469055C6.234375,167.61348854690553,9.4439721,170.82308854690552,13.4032125,170.82308854690552L118.380605,170.82308854690552C122.339845,170.82308854690552,125.549445,167.61348854690553,125.549445,163.6542485469055L125.549445,12.230264646905518C125.549445,8.271025646905517,122.339845,5.061428546905518,118.380605,5.061428546905518L13.4032111,5.061428546905518C9.4439721,5.061428546905518,6.234375,8.271025646905517,6.234375,12.230266546905519L6.234375,163.6542485469055Z" fill="url(#master_svg2_216_76889)" fill-opacity="1"/><path d="M1,165.11579875C1,169.07503875,4.2095971,172.28463875,8.1688375,172.28463875L114.83117,172.28463875C118.79041,172.28463875,122.00001,169.07503875,122.00001,165.11579875L122.00001,7.77430485C122.00001,3.81506585,118.79041,0.60546875,114.83117,0.60546875L8.1688361,0.60546875C4.2095971,0.60546875,1,3.81506585,1,7.77430435L1,165.11579875Z" fill="url(#master_svg3_216_76886)" fill-opacity="1"/><path d="M0 5.1880210638046265C0 3.2084018964846432 1.6047984142382445 1.603603482246399 3.5844175815582275 1.603603482246399L113.83116483688354 1.603603482246399C117.79040317152351 1.603603482246399 121 4.813200310722888 121 8.772438645362854L121 165.1158138513565C121 169.07505218599647 117.79040317152351 172.28464901447296 113.83116483688354 172.28464901447296L3.5844175815582275 172.28464901447296C1.6047984142382445 172.28464901447296 0 170.67985060023472 0 168.70023143291473Z" fill="url(#master_svg4_216_76864)" fill-opacity="1"/><path d="M100.027405,16.5751953125L19,16.5751953125L19,17.4712997125L100.027405,17.4712997125L100.027405,16.5751953125ZM100.027405,31.7205413125L19,31.7205413125L19,32.616646312499995L100.027405,32.616646312499995L100.027405,31.7205413125Z" fill-rule="evenodd" fill="#F5D5B3" fill-opacity="1"/><path d="M36.8972317472641,27.109370037368773L35.0955555472641,28.112262537368775C34.896645147264095,28.222985037368773,34.6462605472641,28.150369437368774,34.5363056472641,27.950071137368774C34.4916484472641,27.868721237368774,34.4754483472641,27.774615037368775,34.4903090472641,27.682875837368776L34.839613747264096,25.526519037368775L33.3412885472641,23.980134037368774C33.1825686132641,23.816323037368775,33.1857753172641,23.553962237368776,33.3484509372641,23.394134537368775C33.4099654372641,23.333696837368773,33.488727267264096,23.294169437368772,33.5736848672641,23.281098637368775L35.6255539472641,22.965412637368775L36.5247033472641,21.036409347368775C36.6212731472641,20.829231746368773,36.8663452472641,20.740112852368775,37.0720869472641,20.837356723368774C37.1590250472641,20.878448099368775,37.2289532472641,20.948864357368773,37.2697595472641,21.036409347368775L38.1689094472641,22.965412637368775L40.2207783472641,23.281098637368775C40.4454492472641,23.315664537368775,40.5997542472641,23.527089137368776,40.5654276472641,23.753328037368775C40.5524467472641,23.838878637368776,40.513193047264096,23.918190237368776,40.4531744472641,23.980134037368774L38.9548491472641,25.526519037368775L39.3041542472641,27.682875837368776C39.3407439472641,27.908755537368776,39.1885637472641,28.121735337368776,38.9642504472641,28.158580537368774C38.8731473472641,28.173545137368773,38.7796934472641,28.157231537368773,38.6989077472641,28.112262537368775L36.8972317472641,27.109370037368773Z" fill="url(#master_svg5_216_77268)" fill-opacity="1"/><path d="M36.8972314472641,27.219962337368774L38.6519092472641,28.196693637368774Q38.8060444472641,28.282491937368775,38.9799131472641,28.253933237368773Q39.1877669472641,28.219791137368773,39.3106631472641,28.047794137368776Q39.4333437472641,27.876099337368775,39.3995412472641,27.667424437368773L39.0579899472641,25.558934937368775L40.5225728472641,24.047374937368776Q40.6363676472641,23.929929037368773,40.6609643472641,23.767823437368776Q40.6926764472641,23.558815037368774,40.5682796472641,23.388369537368774Q40.4436620472641,23.217621837368775,40.235472047264096,23.185591437368775L38.2346657472641,22.877761837368773L37.3573426472641,20.995584997368773Q37.279456447264096,20.828489510368776,37.1133793472641,20.749992899368774Q36.9226342472641,20.659837307368775,36.724432147264096,20.731912270368774Q36.5264676472641,20.803900766168773,36.4371198472641,20.995584847368775L35.5597971472641,22.877761837368773L33.558990897264096,23.185591437368775Q33.3975496572641,23.210429637368776,33.2807287422641,23.325205537368774Q33.1303075702641,23.472993137368775,33.1277229112641,23.684459437368773Q33.1251383792641,23.895915937368773,33.2718903982641,24.047375237368776L34.7364723472641,25.558934937368775L34.3949215472641,27.667424437368773Q34.3666663472641,27.841853337368775,34.4515991472641,27.996571337368774Q34.5533556472641,28.181935537368773,34.7556568472641,28.240606037368774Q34.9581602472641,28.299334737368774,35.1425538472641,28.196693637368774L36.8972314472641,27.219962337368774ZM38.9485877472641,28.063227437368774Q38.841187347264096,28.080868937368773,38.745905747264096,28.027830837368775L36.8972314472641,26.998777137368776L35.0485571472641,28.027830837368775Q34.9345845472641,28.091273537368775,34.8094877472641,28.054992937368773Q34.6841881472641,28.018654137368774,34.6210124472641,27.903570437368774Q34.568071447264096,27.807131037368777,34.585696247264096,27.698327337368774L34.9427551472641,25.494103237368776L33.410686687264096,23.912892337368774Q33.3193588332641,23.818634937368774,33.3209699242641,23.686821437368774Q33.3225809112641,23.555017237368773,33.4161731572641,23.463063437368774Q33.4885371972641,23.391966137368776,33.5883788172641,23.376605237368775L35.6913102472641,23.053063437368774L36.6122866472641,21.077233847368774Q36.6677933472641,20.958151547368775,36.7904790472641,20.913537677368776Q36.9129267472641,20.869010314368776,37.0307945472641,20.924720447368774Q37.1337744472641,20.973394067368773,37.1821759472641,21.077233667368773L38.1031521472641,23.053063437368774L40.2060841472641,23.376605237368775Q40.3348993472641,23.396423837368776,40.4121726472641,23.502301737368775Q40.4896672472641,23.608482837368776,40.4698900472641,23.738832437368774Q40.454564947264096,23.839833037368773,40.3837760472641,23.912892537368776L38.851707347264096,25.494103237368776L39.2087668472641,27.698327337368774Q39.2298482472641,27.828471437368776,39.1534184472641,27.935437937368775Q39.0772045472641,28.042100637368776,38.9485877472641,28.063227437368774Z" fill-rule="evenodd" fill="url(#master_svg6_216_77270)" fill-opacity="1"/><path d="M48.48396079694672,27.109370037368773L46.682284596946715,28.112262537368775C46.48337419694671,28.222985037368773,46.232989596946716,28.150369437368774,46.12303469694672,27.950071137368774C46.078377496946715,27.868721237368774,46.062177396946716,27.774615037368775,46.077038096946715,27.682875837368776L46.42634279694671,25.526519037368775L44.92801759694672,23.980134037368774C44.76929766294672,23.816323037368775,44.77250436694672,23.553962237368776,44.935179986946714,23.394134537368775C44.996694486946716,23.333696837368773,45.07545631694671,23.294169437368772,45.160413916946716,23.281098637368775L47.21228299694672,22.965412637368775L48.11143239694672,21.036409347368775C48.208002196946715,20.829231746368773,48.45307429694672,20.740112852368775,48.658815996946714,20.837356723368774C48.74575409694672,20.878448099368775,48.81568229694672,20.948864357368773,48.85648859694672,21.036409347368775L49.755638496946716,22.965412637368775L51.80750739694672,23.281098637368775C52.03217829694672,23.315664537368775,52.18648329694672,23.527089137368776,52.15215669694672,23.753328037368775C52.139175796946716,23.838878637368776,52.09992209694671,23.918190237368776,52.039903496946714,23.980134037368774L50.541578196946716,25.526519037368775L50.89088329694672,27.682875837368776C50.92747299694672,27.908755537368776,50.775292796946715,28.121735337368776,50.55097949694672,28.158580537368774C50.45987639694672,28.173545137368773,50.36642249694672,28.157231537368773,50.28563679694672,28.112262537368775L48.48396079694672,27.109370037368773Z" fill="url(#master_svg7_216_77268)" fill-opacity="1"/><path d="M48.483960496946715,27.219962337368774L50.23863829694672,28.196693637368774Q50.39277349694672,28.282491937368775,50.56664219694672,28.253933237368773Q50.77449599694672,28.219791137368773,50.89739219694672,28.047794137368776Q51.020072796946714,27.876099337368775,50.986270296946714,27.667424437368773L50.644718996946715,25.558934937368775L52.10930189694672,24.047374937368776Q52.22309669694672,23.929929037368773,52.247693396946715,23.767823437368776Q52.279405496946715,23.558815037368774,52.155008696946716,23.388369537368774Q52.030391096946715,23.217621837368775,51.82220109694671,23.185591437368775L49.82139479694672,22.877761837368773L48.944071696946715,20.995584997368773Q48.86618549694671,20.828489510368776,48.70010839694672,20.749992899368774Q48.50936329694672,20.659837307368775,48.31116119694671,20.731912270368774Q48.113196696946716,20.803900766168773,48.02384889694672,20.995584847368775L47.146526196946716,22.877761837368773L45.14571994694671,23.185591437368775Q44.98427870694672,23.210429637368776,44.86745779194672,23.325205537368774Q44.71703661994672,23.472993137368775,44.71445196094672,23.684459437368773Q44.71186742894672,23.895915937368773,44.858619447946715,24.047375237368776L46.323201396946715,25.558934937368775L45.981650596946714,27.667424437368773Q45.95339539694672,27.841853337368775,46.038328196946715,27.996571337368774Q46.140084696946715,28.181935537368773,46.342385896946716,28.240606037368774Q46.544889296946714,28.299334737368774,46.729282896946714,28.196693637368774L48.483960496946715,27.219962337368774ZM50.53531679694672,28.063227437368774Q50.42791639694671,28.080868937368773,50.332634796946714,28.027830837368775L48.483960496946715,26.998777137368776L46.635286196946716,28.027830837368775Q46.52131359694672,28.091273537368775,46.39621679694672,28.054992937368773Q46.27091719694672,28.018654137368774,46.20774149694672,27.903570437368774Q46.15480049694671,27.807131037368777,46.17242529694671,27.698327337368774L46.52948419694672,25.494103237368776L44.997415736946714,23.912892337368774Q44.906087882946714,23.818634937368774,44.907698973946715,23.686821437368774Q44.909309960946715,23.555017237368773,45.002902206946715,23.463063437368774Q45.07526624694672,23.391966137368776,45.17510786694672,23.376605237368775L47.278039296946716,23.053063437368774L48.19901569694672,21.077233847368774Q48.25452239694672,20.958151547368775,48.37720809694672,20.913537677368776Q48.49965579694672,20.869010314368776,48.61752359694672,20.924720447368774Q48.72050349694672,20.973394067368773,48.768904996946716,21.077233667368773L49.689881196946715,23.053063437368774L51.79281319694672,23.376605237368775Q51.921628396946716,23.396423837368776,51.99890169694672,23.502301737368775Q52.07639629694672,23.608482837368776,52.05661909694672,23.738832437368774Q52.04129399694671,23.839833037368773,51.97050509694672,23.912892537368776L50.43843639694671,25.494103237368776L50.79549589694672,27.698327337368774Q50.81657729694672,27.828471437368776,50.74014749694672,27.935437937368775Q50.66393359694672,28.042100637368776,50.53531679694672,28.063227437368774Z" fill-rule="evenodd" fill="url(#master_svg8_216_77270)" fill-opacity="1"/><path d="M59.62548692451019,27.109370037368773L57.987599524510195,28.112262537368775C57.80677172451019,28.222985037368773,57.57914932451019,28.150369437368774,57.47919042451019,27.950071137368774C57.438592924510196,27.868721237368774,57.42386572451019,27.774615037368775,57.43737532451019,27.682875837368776L57.754925124510194,25.526519037368775L56.39281126451019,23.980134037368774C56.248520418510196,23.816323037368775,56.251435607510196,23.553962237368776,56.39932252451019,23.394134537368775C56.455244804510194,23.333696837368773,56.52684646451019,23.294169437368772,56.60408064451019,23.281098637368775L58.469416024510195,22.965412637368775L59.28682482451019,21.036409347368775C59.374615324510195,20.829231746368773,59.59740822451019,20.740112852368775,59.78444612451019,20.837356723368774C59.86348072451019,20.878448099368775,59.927051924510195,20.948864357368773,59.964148624510194,21.036409347368775L60.78155742451019,22.965412637368775L62.64689292451019,23.281098637368775C62.851138924510195,23.315664537368775,62.99141632451019,23.527089137368776,62.96021022451019,23.753328037368775C62.948409424510196,23.838878637368776,62.912724424510195,23.918190237368776,62.85816232451019,23.980134037368774L61.49604832451019,25.526519037368775L61.81359802451019,27.682875837368776C61.84686122451019,27.908755537368776,61.70851602451019,28.121735337368776,61.50459472451019,28.158580537368774C61.42177382451019,28.173545137368773,61.336815724510195,28.157231537368773,61.263373724510195,28.112262537368775L59.62548692451019,27.109370037368773Z" fill="url(#master_svg9_216_77268)" fill-opacity="1"/><path d="M59.625486724510196,27.222676037368775L61.21291342451019,28.194671837368773Q61.35769022451019,28.283318737368774,61.52177562451019,28.253671437368773Q61.71581872451019,28.218611037368774,61.82907572451019,28.044254037368773Q61.93946202451019,27.874315937368774,61.909197224510194,27.668797237368775L61.598175924510194,25.556767737368773L62.930674424510194,24.044004437368773Q63.03381092451019,23.926914237368774,63.055934824510196,23.766531437368776Q63.08433092451019,23.560664637368774,62.97236572451019,23.391911937368775Q62.85746132451019,23.218729737368776,62.66301672451019,23.185822437368774L60.84987582451019,22.878970137368775L60.053120724510194,20.998707847368774Q59.982157124510195,20.831239130368775,59.82902112451019,20.751621287368774Q59.649424424510194,20.658246297368773,59.46252932451019,20.733005844368776Q59.279401924510196,20.806258347768775,59.19785222451019,20.998707607368775L58.40109742451019,22.878969937368772L56.58795639451019,23.185822437368774Q56.43674135451019,23.211413837368774,56.328396230510194,23.328507137368774Q56.192196227510195,23.475704237368774,56.189875476510196,23.684566737368776Q56.187556132510196,23.893303837368773,56.32029938651019,24.044004937368776L57.652797724510194,25.556767737368773L57.34177552451019,27.668797237368775Q57.31649582451019,27.840463837368773,57.392728424510196,27.993219637368774Q57.48591802451019,28.179953837368775,57.67370032451019,28.239859337368774Q57.86473152451019,28.300801537368773,58.038059424510195,28.194671837368773L59.625486724510196,27.222676037368775ZM61.487412824510194,28.063489637368775Q61.395801424510196,28.080042137368775,61.3138331245102,28.029853137368775L59.625486724510196,26.996063037368774L57.937139524510194,28.029853137368775Q57.83922502451019,28.089806837368776,57.73243772451019,28.055739637368774Q57.62240122451019,28.020635837368776,57.56565232451019,27.906922137368774Q57.51654542451019,27.808521037368774,57.53297492451019,27.696954037368776L57.857052524510195,25.496269937368773L56.46532313451019,23.916262637368774Q56.381630145510194,23.821247337368774,56.383124999510194,23.686714137368774Q56.38461845351019,23.552306437368774,56.470248844510195,23.459761837368774Q56.533890064510196,23.390982137368773,56.620204894510195,23.376374237368776L58.53773442451019,23.051855337368774L59.37579692451019,21.074111077368773Q59.425933224510196,20.955794077368775,59.53430592451019,20.912444097368773Q59.638910624510196,20.870601348368773,59.73987092451019,20.923092047368776Q59.831333024510194,20.970644717368774,59.875176024510196,21.074110837368774L60.71323862451019,23.051855337368774L62.63076822451019,23.376374237368776Q62.74269332451019,23.395316137368773,62.81132642451019,23.498759237368773Q62.88289872451019,23.606632937368776,62.864485624510195,23.740124237368775Q62.85031542451019,23.842848537368774,62.78564962451019,23.916263137368773L61.39392082451019,25.496269937368773L61.71799792451019,27.696954037368776Q61.73762782451019,27.830255237368775,61.667004924510195,27.938977937368776Q61.599252124510194,28.043281837368774,61.487412824510194,28.063489637368775Z" fill-rule="evenodd" fill="url(#master_svga_216_77270)" fill-opacity="1"/><path d="M70.76700942670746,27.109370037368773L68.96533322670746,28.112262537368775C68.76642282670745,28.222985037368773,68.51603822670747,28.150369437368774,68.40608332670746,27.950071137368774C68.36142612670746,27.868721237368774,68.34522602670746,27.774615037368775,68.36008672670746,27.682875837368776L68.70939142670746,25.526519037368775L67.21106622670746,23.980134037368774C67.05234629270745,23.816323037368775,67.05555299670746,23.553962237368776,67.21822861670746,23.394134537368775C67.27974311670746,23.333696837368773,67.35850494670746,23.294169437368772,67.44346254670747,23.281098637368775L69.49533162670745,22.965412637368775L70.39448102670745,21.036409347368775C70.49105082670746,20.829231746368773,70.73612292670745,20.740112852368775,70.94186462670746,20.837356723368774C71.02880272670745,20.878448099368775,71.09873092670746,20.948864357368773,71.13953722670746,21.036409347368775L72.03868712670746,22.965412637368775L74.09055602670746,23.281098637368775C74.31522692670745,23.315664537368775,74.46953192670746,23.527089137368776,74.43520532670746,23.753328037368775C74.42222442670746,23.838878637368776,74.38297072670746,23.918190237368776,74.32295212670746,23.980134037368774L72.82462682670746,25.526519037368775L73.17393192670745,27.682875837368776C73.21052162670746,27.908755537368776,73.05834142670746,28.121735337368776,72.83402812670747,28.158580537368774C72.74292502670745,28.173545137368773,72.64947112670745,28.157231537368773,72.56868542670746,28.112262537368775L70.76700942670746,27.109370037368773Z" fill="url(#master_svgb_216_77268)" fill-opacity="1"/><path d="M70.76700912670746,27.219962337368774L72.52168692670746,28.196693637368774Q72.67582212670746,28.282491937368775,72.84969082670746,28.253933237368773Q73.05754462670745,28.219791137368773,73.18044082670745,28.047794137368776Q73.30312142670746,27.876099337368775,73.26931892670746,27.667424437368773L72.92776762670746,25.558934937368775L74.39235052670746,24.047374937368776Q74.50614532670745,23.929929037368773,74.53074202670746,23.767823437368776Q74.56245412670746,23.558815037368774,74.43805732670745,23.388369537368774Q74.31343972670746,23.217621837368775,74.10524972670746,23.185591437368775L72.10444342670746,22.877761837368773L71.22712032670746,20.995584997368773Q71.14923412670746,20.828489510368776,70.98315702670746,20.749992899368774Q70.79241192670746,20.659837307368775,70.59420982670746,20.731912270368774Q70.39624532670746,20.803900766168773,70.30689752670746,20.995584847368775L69.42957482670747,22.877761837368773L67.42876857670745,23.185591437368775Q67.26732733670745,23.210429637368776,67.15050642170746,23.325205537368774Q67.00008524970745,23.472993137368775,66.99750059070746,23.684459437368773Q66.99491605870746,23.895915937368773,67.14166807770746,24.047375237368776L68.60625002670746,25.558934937368775L68.26469922670746,27.667424437368773Q68.23644402670746,27.841853337368775,68.32137682670746,27.996571337368774Q68.42313332670746,28.181935537368773,68.62543452670747,28.240606037368774Q68.82793792670746,28.299334737368774,69.01233152670746,28.196693637368774L70.76700912670746,27.219962337368774ZM72.81836542670746,28.063227437368774Q72.71096502670746,28.080868937368773,72.61568342670746,28.027830837368775L70.76700912670746,26.998777137368776L68.91833482670746,28.027830837368775Q68.80436222670745,28.091273537368775,68.67926542670746,28.054992937368773Q68.55396582670745,28.018654137368774,68.49079012670745,27.903570437368774Q68.43784912670746,27.807131037368777,68.45547392670746,27.698327337368774L68.81253282670745,25.494103237368776L67.28046436670746,23.912892337368774Q67.18913651270746,23.818634937368774,67.19074760370746,23.686821437368774Q67.19235859070746,23.555017237368773,67.28595083670746,23.463063437368774Q67.35831487670745,23.391966137368776,67.45815649670746,23.376605237368775L69.56108792670746,23.053063437368774L70.48206432670746,21.077233847368774Q70.53757102670745,20.958151547368775,70.66025672670746,20.913537677368776Q70.78270442670745,20.869010314368776,70.90057222670745,20.924720447368774Q71.00355212670746,20.973394067368773,71.05195362670746,21.077233667368773L71.97292982670746,23.053063437368774L74.07586182670745,23.376605237368775Q74.20467702670746,23.396423837368776,74.28195032670746,23.502301737368775Q74.35944492670745,23.608482837368776,74.33966772670746,23.738832437368774Q74.32434262670746,23.839833037368773,74.25355372670745,23.912892537368776L72.72148502670746,25.494103237368776L73.07854452670746,27.698327337368774Q73.09962592670746,27.828471437368776,73.02319612670746,27.935437937368775Q72.94698222670746,28.042100637368776,72.81836542670746,28.063227437368774Z" fill-rule="evenodd" fill="url(#master_svgc_216_77270)" fill-opacity="1"/><path d="M82.35374038373871,27.109370037368773L80.55206418373871,28.112262537368775C80.3531537837387,28.222985037368773,80.10276918373872,28.150369437368774,79.99281428373871,27.950071137368774C79.9481570837387,27.868721237368774,79.93195698373871,27.774615037368775,79.94681768373871,27.682875837368776L80.2961223837387,25.526519037368775L78.79779718373871,23.980134037368774C78.6390772497387,23.816323037368775,78.64228395373871,23.553962237368776,78.80495957373871,23.394134537368775C78.86647407373871,23.333696837368773,78.9452359037387,23.294169437368772,79.03019350373872,23.281098637368775L81.0820625837387,22.965412637368775L81.9812119837387,21.036409347368775C82.07778178373871,20.829231746368773,82.3228538837387,20.740112852368775,82.5285955837387,20.837356723368774C82.6155336837387,20.878448099368775,82.68546188373871,20.948864357368773,82.72626818373871,21.036409347368775L83.62541808373871,22.965412637368775L85.67728698373871,23.281098637368775C85.9019578837387,23.315664537368775,86.05626288373871,23.527089137368776,86.02193628373871,23.753328037368775C86.00895538373871,23.838878637368776,85.9697016837387,23.918190237368776,85.90968308373871,23.980134037368774L84.41135778373871,25.526519037368775L84.7606628837387,27.682875837368776C84.79725258373871,27.908755537368776,84.64507238373871,28.121735337368776,84.42075908373872,28.158580537368774C84.3296559837387,28.173545137368773,84.2362020837387,28.157231537368773,84.15541638373871,28.112262537368775L82.35374038373871,27.109370037368773Z" fill="url(#master_svgd_216_77268)" fill-opacity="1"/><path d="M82.35374008373871,27.219962337368774L84.10841788373871,28.196693637368774Q84.26255308373871,28.282491937368775,84.43642178373871,28.253933237368773Q84.6442755837387,28.219791137368773,84.7671717837387,28.047794137368776Q84.88985238373871,27.876099337368775,84.8560498837387,27.667424437368773L84.51449858373871,25.558934937368775L85.97908148373871,24.047374937368776Q86.0928762837387,23.929929037368773,86.11747298373871,23.767823437368776Q86.14918508373871,23.558815037368774,86.0247882837387,23.388369537368774Q85.90017068373871,23.217621837368775,85.6919806837387,23.185591437368775L83.69117438373871,22.877761837368773L82.81385128373871,20.995584997368773Q82.7359650837387,20.828489510368776,82.56988798373871,20.749992899368774Q82.37914288373871,20.659837307368775,82.1809407837387,20.731912270368774Q81.98297628373871,20.803900766168773,81.89362848373871,20.995584847368775L81.01630578373872,22.877761837368773L79.0154995337387,23.185591437368775Q78.8540582937387,23.210429637368776,78.73723737873871,23.325205537368774Q78.5868162067387,23.472993137368775,78.58423154773871,23.684459437368773Q78.58164701573871,23.895915937368773,78.72839903473871,24.047375237368776L80.1929809837387,25.558934937368775L79.85143018373871,27.667424437368773Q79.82317498373871,27.841853337368775,79.90810778373871,27.996571337368774Q80.00986428373871,28.181935537368773,80.21216548373872,28.240606037368774Q80.41466888373871,28.299334737368774,80.5990624837387,28.196693637368774L82.35374008373871,27.219962337368774ZM84.40509638373871,28.063227437368774Q84.2976959837387,28.080868937368773,84.20241438373871,28.027830837368775L82.35374008373871,26.998777137368776L80.50506578373871,28.027830837368775Q80.3910931837387,28.091273537368775,80.26599638373871,28.054992937368773Q80.1406967837387,28.018654137368774,80.0775210837387,27.903570437368774Q80.02458008373871,27.807131037368777,80.0422048837387,27.698327337368774L80.3992637837387,25.494103237368776L78.86719532373871,23.912892337368774Q78.77586746973871,23.818634937368774,78.77747856073871,23.686821437368774Q78.7790895477387,23.555017237368773,78.8726817937387,23.463063437368774Q78.9450458337387,23.391966137368776,79.04488745373871,23.376605237368775L81.14781888373871,23.053063437368774L82.06879528373871,21.077233847368774Q82.1243019837387,20.958151547368775,82.24698768373871,20.913537677368776Q82.3694353837387,20.869010314368776,82.4873031837387,20.924720447368774Q82.59028308373871,20.973394067368773,82.63868458373871,21.077233667368773L83.5596607837387,23.053063437368774L85.6625927837387,23.376605237368775Q85.79140798373871,23.396423837368776,85.86868128373871,23.502301737368775Q85.9461758837387,23.608482837368776,85.92639868373871,23.738832437368774Q85.91107358373871,23.839833037368773,85.8402846837387,23.912892537368776L84.3082159837387,25.494103237368776L84.66527548373871,27.698327337368774Q84.68635688373871,27.828471437368776,84.60992708373871,27.935437937368775Q84.53371318373871,28.042100637368776,84.40509638373871,28.063227437368774Z" fill-rule="evenodd" fill="url(#master_svge_216_77270)" fill-opacity="1"/><rect x="8" y="1.4970703125" width="3.5616440773010254" height="171.1088104248047" rx="0" fill="url(#master_svgf_216_76867)" fill-opacity="1"/><rect x="10.671875" y="1.4970703125" width="0.8904110193252563" height="171.1088104248047" rx="0" fill="url(#master_svgg_216_76873)" fill-opacity="1" style="opacity:0.30000001192092896;"/><path d="M109.44999885559082,2.688532590866089L111.19999885559082,32.54577859086609L112.94999885559082,2.688532590866089L109.44999885559082,2.688532590866089Z" fill="#D6BF98" fill-opacity="1" filter="url(#master_svgh_292_85661)"/><path d="M93,32.54577975L102.1000004,24.18045775L111.200001,32.54577975L111.200001,2.68853255C111.200001,0.95264602,111.9,0.60546875,112.599998,0.60546875L94.4,0.60546875C93,0.60546875,93,2.68853255,93,3.38288685L93,32.54577975Z" fill="url(#master_svgi_216_76847)" fill-opacity="1"/><path d="M112.599998,0.60546875L94.4,0.60546875C93,0.60546875,93,2.68853255,93,3.38288685L93,32.54577975L93.4480522,32.13390175L102.1000004,24.18045775L110.751949,32.13390175L111.200001,32.54577975L111.200001,2.68853255C111.200001,1.87303875,111.354488,1.36403042,111.590889,1.05352095C111.857698,0.703069903,112.228849,0.60546875,112.599998,0.60546875ZM94.4,1.05352095L111.055063,1.05352095Q110.751949,1.66345275,110.751949,2.68853285L110.751949,31.52530075L102.1000004,23.57185575L93.4480522,31.52529875L93.44805205,3.38288715Q93.44805205,1.05352095,94.4,1.05352095Z" fill-rule="evenodd" fill="url(#master_svgj_216_76849)" fill-opacity="1"/><path d="M111.20000076293945 1.6470006704330444C111.20000076293945 1.0717784743158945 111.66631048725534 0.60546875 112.2415326833725 0.60546875L112.95846879482269 0.60546875C113.53369099093985 0.60546875 114.00000071525574 1.0717784743158947 114.00000071525574 1.6470006704330444L114.00000071525574 2.688532590866089C114.00000071525574 2.688532590866089 114.00000071525574 2.688532590866089 114.00000071525574 2.688532590866089L111.20000076293945 2.688532590866089C111.20000076293945 2.688532590866089 111.20000076293945 2.688532590866089 111.20000076293945 2.688532590866089Z" fill="url(#master_svgk_216_76857)" fill-opacity="1"/></svg>
